<svg xmlns="http://www.w3.org/2000/svg" xmlns:xlink="http://www.w3.org/1999/xlink" version="1.1" x="0px" y="0px" width="100px" height="100px" viewBox="0 0 100 100" enable-background="new 0 0 100 100" xml:space="preserve">
<g id="Captions">
	<rect x="-192" width="185" height="99"/>
	<rect y="-36" width="100" height="30"/>
	<text transform="matrix(1 0 0 1 66 -19.5)" fill="#FFFFFF" font-family="'Helvetica'" font-size="2.4">http://thenounproject.com</text>
	<text transform="matrix(1 0 0 1 7.166 -24.5)"><tspan x="0" y="0" fill="#FFFFFF" font-family="'Helvetica-Bold'" font-size="6.1578">The Noun Project</tspan><tspan x="1.12" y="4.8" fill="#FFFFFF" font-family="'Helvetica-Bold'" font-size="4">Icon Template</tspan></text>
	<text transform="matrix(1 0 0 1 -178.5 10.5)" fill="#FFFFFF" font-family="'Helvetica-Bold'" font-size="6.1578">Reminders</text>
	<line fill="#FFFFFF" stroke="#FFFFFF" stroke-miterlimit="10" x1="8" y1="-14.5" x2="18" y2="-14.5"/>
	<line fill="#FFFFFF" stroke="#FFFFFF" stroke-miterlimit="10" x1="-179" y1="16.5" x2="-162" y2="16.5"/>
	<g>
		<g>
			<g>
				<rect x="-170.802" y="31.318" fill="#FFFFFF" width="8.721" height="8.642"/>
				<path fill="#FFFFFF" d="M-164.455,42.312h4.747v-4.703h-4.747V42.312z M-159.266,42.749h-5.63V37.17h5.63V42.749      L-159.266,42.749z M-166.221,44.062h8.279v-8.203h-8.279V44.062L-166.221,44.062z M-157.5,44.5h-9.163v-9.079h9.163V44.5      L-157.5,44.5z"/>
				<polygon fill="#FFFFFF" points="-166.149,44.133 -166.292,43.991 -158.013,35.787 -157.871,35.929     "/>
			</g>
		</g>
	</g>
	<rect x="-179" y="58" fill="none" width="35" height="32.5"/>
	<text transform="matrix(1 0 0 1 -179 60.1572)"><tspan x="0" y="0" fill="#FFFFFF" font-family="'Helvetica-Bold'" font-size="3">Strokes</tspan><tspan x="0" y="5" fill="#FFFFFF" font-family="'Helvetica'" font-size="2.4">Try to keep strokes at 4px</tspan><tspan x="0" y="10" fill="#FFFFFF" font-family="'Helvetica'" font-size="2.4">Minimum stroke weight is 2px</tspan><tspan x="0" y="14.5" fill="#FFFFFF" font-family="'Helvetica'" font-size="2.4">For thicker strokes use even </tspan><tspan x="0" y="17.5" fill="#FFFFFF" font-family="'Helvetica'" font-size="2.4">numbers: 6px, 8px etc.</tspan><tspan x="0" y="22" fill="#FFFFFF" font-family="'Helvetica-Bold'" font-size="2.4">Remember to expand strokes </tspan><tspan x="0" y="25" fill="#FFFFFF" font-family="'Helvetica-Bold'" font-size="2.4">before saving as an SVG </tspan></text>
	<rect x="-136.5" y="58" fill="none" width="35" height="32.5"/>
	<text transform="matrix(1 0 0 1 -136.5 60.1572)"><tspan x="0" y="0" fill="#FFFFFF" font-family="'Helvetica-Bold'" font-size="3">Size</tspan><tspan x="0" y="5" fill="#FFFFFF" font-family="'Helvetica'" font-size="2.4">Cannot be wider or taller than </tspan><tspan x="0" y="8.5" fill="#FFFFFF" font-family="'Helvetica'" font-size="2.4">100px (artboard size)</tspan><tspan x="0" y="13.5" fill="#FFFFFF" font-family="'Helvetica'" font-size="2.4">Scale your icon to fill as much of </tspan><tspan x="0" y="16.5" fill="#FFFFFF" font-family="'Helvetica'" font-size="2.4">the artboard as possible</tspan></text>
	<rect x="-94" y="58" fill="none" width="35" height="32.5"/>
	<text transform="matrix(1 0 0 1 -94 60.1572)"><tspan x="0" y="0" fill="#FFFFFF" font-family="'Helvetica-Bold'" font-size="3">Ungroup</tspan><tspan x="0" y="5" fill="#FFFFFF" font-family="'Helvetica'" font-size="2.4">If your design has more than one </tspan><tspan x="0" y="8" fill="#FFFFFF" font-family="'Helvetica'" font-size="2.4">shape, make sure to ungroup</tspan></text>
	<rect x="-50" y="58" fill="none" width="35" height="32.5"/>
	<text transform="matrix(1 0 0 1 -50 60.1572)"><tspan x="0" y="0" fill="#FFFFFF" font-family="'Helvetica-Bold'" font-size="3">Save as</tspan><tspan x="0" y="5" fill="#FFFFFF" font-family="'Helvetica'" font-size="2.4">Save as .SVG and make sure </tspan><tspan x="0" y="8" fill="#FFFFFF" font-family="'Helvetica'" font-size="2.4">&#8220;Use Artboards&#8221; is checked</tspan></text>
	<text transform="matrix(1.0074 0 0 1 -125.542 30.5933)" fill="#FFFFFF" font-family="'Helvetica'" font-size="2.5731">100px</text>
	<text transform="matrix(1.0074 0 0 1 -41 39)" fill="#FFFFFF" font-family="'Helvetica-Bold'" font-size="5.1462">.SVG</text>
	<rect x="-126.514" y="34.815" fill="#FFFFFF" width="10.261" height="10.185"/>
	<rect x="-126.477" y="31.766" fill="#FFFFFF" width="0.522" height="2.337"/>
	<rect x="-116.812" y="31.766" fill="#FFFFFF" width="0.523" height="2.337"/>
	<rect x="-127" y="32.337" fill="#FFFFFF" width="11.233" height="0.572"/>
	<g>
		<rect x="-83.805" y="33.844" fill="#FFFFFF" width="10.305" height="10.156"/>
		<rect x="-76.809" y="28.707" fill="#FFFFFF" width="3.308" height="3.261"/>
	</g>
	<rect x="-178.5" y="22.5" fill="#FFFFFF" stroke="#FFFFFF" stroke-miterlimit="10" width="30" height="30"/>
	<rect x="-136.5" y="22.5" fill="#FFFFFF" stroke="#FFFFFF" stroke-miterlimit="10" width="30" height="30"/>
	<rect x="-93.5" y="22.5" fill="#FFFFFF" stroke="#FFFFFF" stroke-miterlimit="10" width="30" height="30"/>
	<rect x="-49.5" y="22.5" fill="#FFFFFF" stroke="#FFFFFF" stroke-miterlimit="10" width="30" height="30"/>
</g>
<g id="Your_Icon">
	<g>
		<path fill="#FFFFFF" d="M92.878,44.323c0,0,4.608,4.245,0.242,8.612c-4.367,4.366-8.49-0.122-8.49-0.122L49.962,30.496    L15.294,52.812c0,0-4.003,4.73-8.37,0.365c-4.366-4.367,0.061-8.673,0.061-8.673L49.962,14L92.878,44.323z"/>
		<path fill="#FFFFFF" d="M50.5,24.023L13,48.724c0,0,0,18.525,0,24.701C13,85.775,25.349,86,25.349,86h49.4    C87.1,86,88,73.425,88,73.425V48.724L50.5,24.023z M81,73.425c0,0-0.075,6.575-6.251,6.575c-6.175,0-49.4,0-49.4,0    S19,79.6,19,73.425c0,0,0-6.176,0-12.351c0-12.35,31-30.875,31-30.875s31,18.525,31,30.875C81,67.249,81,73.425,81,73.425z"/>
		<rect x="45" y="55" fill="#FFFFFF" width="11" height="25"/>
		<polygon fill="#FFFFFF" points="69,19 69,24.023 81,36.374 81,19   "/>
		<polygon fill="#FFFFFF" points="26,55 26,68 32,68 32,62 38,62 38,55   "/>
		<polygon fill="#FFFFFF" points="63,55 63,62 69,62 69,68 75,68 75,55   "/>
	</g>
</g>
</svg>